<svg xmlns="http://www.w3.org/2000/svg" version="1.1" xmlns:xlink="http://www.w3.org/1999/xlink" xmlns:svgjs="http://svgjs.dev/svgjs" width="1000" height="1000" viewBox="0 0 1000 1000"><rect width="1000" height="1000" fill="#000000"></rect><g transform="matrix(0.7,0,0,0.7,149.89049321260734,171.61611336032388)"><svg viewBox="0 0 263 247" data-background-color="#705d9d" preserveAspectRatio="xMidYMid meet" height="939" width="1000" xmlns="http://www.w3.org/2000/svg" xmlns:xlink="http://www.w3.org/1999/xlink"><g id="tight-bounds" transform="matrix(1,0,0,1,0.04114340172898778,-0.09999999999999432)"><svg viewBox="0 0 262.9177133338649 247.2" height="247.2" width="262.9177133338649"><g><svg viewBox="0 0 395.52000000000004 371.8750736122673" height="247.2" width="262.9177133338649"><g transform="matrix(1,0,0,1,0,291.7313715312158)"><svg viewBox="0 0 395.52000000000004 80.14370208105147" height="80.14370208105147" width="395.52000000000004"><g id="textblocktransform"><svg viewBox="0 0 395.52000000000004 80.14370208105147" height="80.14370208105147" width="395.52000000000004" id="textblock"><g><svg viewBox="0 0 395.52000000000004 80.14370208105147" height="80.14370208105147" width="395.52000000000004"><g transform="matrix(1,0,0,1,0,0)"><svg width="395.52000000000004" viewBox="5.400000095367432 -36.5 182.5900115966797 37" height="80.14370208105147" data-palette-color="#f1f1f1"><path d="M17.1 0L5.4 0 5.4-33 17.15-33Q23-33 25.7-30.55 28.4-28.1 28.4-23.9L28.4-23.9Q28.4-21.4 26.95-19.38 25.5-17.35 22.85-16.8L22.85-16.8 22.85-16.75Q25.8-16.2 27.53-14.08 29.25-11.95 29.25-9.25L29.25-9.25Q29.25-5.05 26.1-2.53 22.95 0 17.1 0L17.1 0ZM9.4-14.75L9.4-3.75 18.05-3.75Q21.6-3.75 23.33-5.2 25.05-6.65 25.05-9.25L25.05-9.25Q25.05-11.9 23.33-13.33 21.6-14.75 18.05-14.75L18.05-14.75 9.4-14.75ZM9.4-29.25L9.4-18.5 17.2-18.5Q24.2-18.5 24.2-23.9L24.2-23.9Q24.2-29.25 17.2-29.25L17.2-29.25 9.4-29.25ZM41.3 0L37.3 0 37.3-25 40.55-25 41.1-20.9Q42.15-23.2 44.17-24.35 46.2-25.5 49.1-25.5L49.1-25.5Q49.75-25.5 50.52-25.4 51.3-25.3 51.85-25L51.85-25 51.15-21.35Q50.6-21.55 49.95-21.65 49.3-21.75 48.1-21.75L48.1-21.75Q46.55-21.75 44.97-20.85 43.4-19.95 42.35-18.13 41.3-16.3 41.3-13.5L41.3-13.5 41.3 0ZM68.15 0.5L68.15 0.5Q64.59 0.5 61.82-1.05 59.05-2.6 57.5-5.53 55.95-8.45 55.95-12.5L55.95-12.5Q55.95-16.55 57.5-19.48 59.05-22.4 61.75-23.95 64.45-25.5 67.9-25.5L67.9-25.5Q71.4-25.5 73.87-24 76.34-22.5 77.65-19.93 78.95-17.35 78.95-14.15L78.95-14.15Q78.95-13.3 78.9-12.6 78.84-11.9 78.75-11.35L78.75-11.35 58.55-11.35 58.55-14.9 77-14.9 74.95-14.5Q74.95-18.1 72.97-20.05 71-22 67.8-22L67.8-22Q65.34-22 63.57-20.88 61.8-19.75 60.82-17.63 59.84-15.5 59.84-12.5L59.84-12.5Q59.84-9.55 60.84-7.4 61.84-5.25 63.67-4.13 65.5-3 68.05-3L68.05-3Q70.8-3 72.52-4.05 74.25-5.1 75.3-6.9L75.3-6.9 78.45-5.05Q77.5-3.35 76.02-2.1 74.55-0.85 72.57-0.18 70.59 0.5 68.15 0.5ZM101.14-9.25L101.14-16.15Q101.14-18.95 99.64-20.48 98.14-22 95.39-22L95.39-22Q92.79-22 90.99-20.88 89.19-19.75 88.34-17.25L88.34-17.25 85.09-19.25Q86.09-22.05 88.79-23.78 91.49-25.5 95.49-25.5L95.49-25.5Q98.19-25.5 100.39-24.58 102.59-23.65 103.87-21.78 105.14-19.9 105.14-16.95L105.14-16.95 105.14-4.85Q105.14-3.05 107.04-3.05L107.04-3.05Q107.99-3.05 108.89-3.3L108.89-3.3 108.69-0.15Q107.69 0.35 106.09 0.35L106.09 0.35Q104.64 0.35 103.49-0.2 102.34-0.75 101.69-1.88 101.04-3 101.04-4.7L101.04-4.7 101.04-5.2 102.04-5.05Q101.44-3.1 99.99-1.88 98.54-0.65 96.74-0.08 94.94 0.5 93.19 0.5L93.19 0.5Q90.99 0.5 89.09-0.25 87.19-1 86.07-2.53 84.94-4.05 84.94-6.3L84.94-6.3Q84.94-9.1 86.82-10.93 88.69-12.75 92.04-13.4L92.04-13.4 101.94-15.35 101.94-12.05 93.89-10.4Q91.44-9.9 90.24-9 89.04-8.1 89.04-6.5L89.04-6.5Q89.04-4.95 90.27-3.98 91.49-3 93.74-3L93.74-3Q95.19-3 96.52-3.38 97.84-3.75 98.89-4.53 99.94-5.3 100.54-6.48 101.14-7.65 101.14-9.25L101.14-9.25ZM116.74-31L120.74-32.1 120.74-6.9Q120.74-5.05 121.79-4.15 122.84-3.25 124.49-3.25L124.49-3.25Q125.94-3.25 126.99-3.75 128.04-4.25 128.89-5.1L128.89-5.1 130.29-1.75Q129.14-0.7 127.57-0.1 125.99 0.5 123.94 0.5L123.94 0.5Q122.04 0.5 120.39-0.18 118.74-0.85 117.77-2.33 116.79-3.8 116.74-6.2L116.74-6.2 116.74-31ZM111.74-25L129.84-25 129.84-21.55 111.74-21.55 111.74-25ZM139.79 0L135.79 0 135.79-36.5 139.79-36.5 139.79-21.25Q141.09-23.5 143.24-24.5 145.39-25.5 147.94-25.5L147.94-25.5Q150.64-25.5 152.84-24.48 155.04-23.45 156.36-21.35 157.69-19.25 157.69-16L157.69-16 157.69 0 153.69 0 153.69-14.6Q153.69-18.75 151.91-20.38 150.14-22 147.54-22L147.54-22Q145.74-22 143.94-21.15 142.14-20.3 140.96-18.38 139.79-16.45 139.79-13.25L139.79-13.25 139.79 0ZM177.19 0.5L177.19 0.5Q173.64 0.5 170.86-1.05 168.09-2.6 166.54-5.53 164.99-8.45 164.99-12.5L164.99-12.5Q164.99-16.55 166.54-19.48 168.09-22.4 170.79-23.95 173.49-25.5 176.94-25.5L176.94-25.5Q180.44-25.5 182.91-24 185.39-22.5 186.69-19.93 187.99-17.35 187.99-14.15L187.99-14.15Q187.99-13.3 187.94-12.6 187.89-11.9 187.79-11.35L187.79-11.35 167.59-11.35 167.59-14.9 186.04-14.9 183.99-14.5Q183.99-18.1 182.01-20.05 180.04-22 176.84-22L176.84-22Q174.39-22 172.61-20.88 170.84-19.75 169.86-17.63 168.89-15.5 168.89-12.5L168.89-12.5Q168.89-9.55 169.89-7.4 170.89-5.25 172.71-4.13 174.54-3 177.09-3L177.09-3Q179.84-3 181.56-4.05 183.29-5.1 184.34-6.9L184.34-6.9 187.49-5.05Q186.54-3.35 185.06-2.1 183.59-0.85 181.61-0.18 179.64 0.5 177.19 0.5Z" opacity="1" transform="matrix(1,0,0,1,0,0)" fill="#ffffff" class="undefined-text-0" data-fill-palette-color="primary" id="text-0"></path></svg></g></svg></g></svg></g></svg></g><g transform="matrix(1,0,0,1,75.54432000000001,0)"><svg viewBox="0 0 244.43136 244.43136" height="244.43136" width="244.43136"><g><svg viewBox="0 0 244.43136 244.43136" height="244.43136" width="244.43136"><g transform="matrix(1,0,0,1,71.5808824439204,64.60265593644993)"><svg viewBox="0 0 101.26959511215921 115.22604812710016" height="115.22604812710016" width="101.26959511215921"><g><svg xmlns="http://www.w3.org/2000/svg" xmlns:xlink="http://www.w3.org/1999/xlink" version="1.1" x="0" y="0" viewBox="5 1.558000087738037 54 61.44200134277344" style="enable-background:new 0 0 64 64;" xml:space="preserve" height="115.22604812710016" width="101.26959511215921" class="icon-s-0" data-fill-palette-color="accent" id="s-0"><g fill="#ffffff" data-fill-palette-color="accent"><path d="M14 41c-1.654 0-3 1.346-3 3s1.346 3 3 3 3-1.346 3-3S15.654 41 14 41zM14 45c-0.552 0-1-0.448-1-1s0.448-1 1-1 1 0.448 1 1S14.552 45 14 45z" fill="#ffffff" data-fill-palette-color="accent"></path><rect x="11" y="36" width="2" height="2" fill="#ffffff" data-fill-palette-color="accent"></rect><rect x="11" y="30" width="2" height="2" fill="#ffffff" data-fill-palette-color="accent"></rect><path d="M50 41c-1.654 0-3 1.346-3 3s1.346 3 3 3 3-1.346 3-3S51.654 41 50 41zM50 45c-0.552 0-1-0.448-1-1s0.448-1 1-1 1 0.448 1 1S50.552 45 50 45z" fill="#ffffff" data-fill-palette-color="accent"></path><rect x="51" y="36" width="2" height="2" fill="#ffffff" data-fill-palette-color="accent"></rect><rect x="51" y="30" width="2" height="2" fill="#ffffff" data-fill-palette-color="accent"></rect><path d="M50.852 21.135L32 1.558 13.148 21.135C7.894 26.592 5 33.769 5 41.345c0 7.783 3.031 15.101 8.534 20.604L14.586 63H19h26 4.414l1.052-1.052C55.969 56.445 59 49.128 59 41.345 59 33.769 56.106 26.592 50.852 21.135zM28.414 60l1.879-1.879C30.531 57.883 31 58.076 31 58.414V61h-5v-1H28.414zM33 58.414c0-0.338 0.469-0.531 0.707-0.293L35.586 60H38v1h-5V58.414zM40 61v-1h3v-2h-6.586l-1.293-1.293C34.672 56.258 34.05 56 33.414 56c-0.53 0-1.016 0.176-1.414 0.467C31.602 56.176 31.115 56 30.586 56c-0.636 0-1.258 0.258-1.707 0.707L27.586 58H21v2h3v1h-5c-1.654 0-3-1.346-3-3s1.346-3 3-3h26c1.654 0 3 1.346 3 3s-1.346 3-3 3H40zM40 38.808C39.164 38.29 38.206 38 37.198 38H36v-0.264c1.811-1.267 3-3.364 3-5.736v-5H25v5c0 2.372 1.189 4.469 3 5.736V38h-1.198c-1.007 0-1.966 0.29-2.802 0.808V28c0-4.411 3.589-8 8-8s8 3.589 8 8V38.808zM32 40c-1.063 0-1.752-0.893-2-1.276v-0.019C30.634 38.895 31.305 39 32 39s1.366-0.105 2-0.295v0.019C33.752 39.107 33.063 40 32 40zM32 37c-2.757 0-5-2.243-5-5v-3h10v3C37 34.757 34.757 37 32 37zM24.433 40.981C25.065 40.349 25.907 40 26.802 40h1.648c0.431 0.605 1.272 1.529 2.55 1.867V47h2v-5.133c1.278-0.339 2.119-1.262 2.55-1.867h1.648c0.895 0 1.736 0.349 2.369 0.981 0.365 0.365 0.645 0.818 0.809 1.309l1.792 5.377 4.167 2.5C46.745 50.413 47 50.863 47 51.342v0.288c0 0.756-0.614 1.37-1.37 1.37-0.238 0-0.474-0.062-0.681-0.181L39 49.42V44h-2v9H27v-9h-2v5.42l-5.95 3.4C18.844 52.938 18.608 53 18.37 53 17.614 53 17 52.386 17 51.63v-0.288c0-0.479 0.255-0.929 0.665-1.175l4.167-2.5 1.793-5.378C23.788 41.8 24.067 41.347 24.433 40.981zM39 51.723L41.234 53H39V51.723zM25 53h-2.235L25 51.723V53zM49.597 59.962C49.855 59.359 50 58.696 50 58c0-1.628-0.794-3.063-2.002-3.976C48.616 53.412 49 52.566 49 51.63v-0.288c0-1.177-0.627-2.283-1.636-2.89l-3.532-2.119-1.559-4.675c-0.075-0.226-0.17-0.444-0.275-0.658H42V28c0-5.514-4.486-10-10-10s-10 4.486-10 10v13h0.001c-0.105 0.214-0.199 0.432-0.274 0.657l-1.56 4.676-3.532 2.119C15.627 49.059 15 50.165 15 51.342v0.288c0 0.936 0.384 1.782 1.002 2.394C14.794 54.937 14 56.372 14 58c0 0.696 0.145 1.359 0.403 1.962C9.628 54.906 7 48.329 7 41.345c0-7.056 2.695-13.74 7.59-18.822L32 4.442l17.41 18.081C54.305 27.604 57 34.289 57 41.345 57 48.329 54.372 54.906 49.597 59.962z" fill="#ffffff" data-fill-palette-color="accent"></path><rect x="31" y="49" width="2" height="2" fill="#ffffff" data-fill-palette-color="accent"></rect></g></svg></g></svg></g><path d="M8.922 166.939l-3.088-8.699 24.527-8.708 3.102 8.737c1.027 2.893 1.17 5.225 0.428 6.995-0.736 1.768-2.145 3.022-4.23 3.762v0c-1.236 0.439-2.481 0.479-3.735 0.121-1.262-0.363-2.264-1.152-3.004-2.367v0l-0.038 0.013c0.25 1.554-0.002 2.946-0.756 4.176-0.748 1.227-1.792 2.078-3.13 2.553v0c-2.077 0.738-4.021 0.549-5.831-0.567-1.801-1.111-3.216-3.117-4.245-6.016zM17.853 157.321l-8.173 2.901 2.284 6.433c0.624 1.759 1.445 2.938 2.462 3.539 1.023 0.598 2.179 0.669 3.466 0.212v0c1.313-0.466 2.171-1.252 2.575-2.357 0.404-1.105 0.294-2.537-0.33-4.295v0zM28.626 153.496l-7.982 2.834 2.057 5.792c1.233 3.473 3.185 4.736 5.854 3.788v0c2.651-0.941 3.36-3.148 2.127-6.621v0zM33.92 206.463l-2.155-2.304 14.402-13.469 1.746 1.867-2.065 2.529c1.263-0.422 2.477-0.45 3.641-0.086 1.174 0.365 2.281 1.103 3.32 2.214v0c0.236 0.252 0.472 0.544 0.71 0.878 0.238 0.333 0.399 0.659 0.484 0.977v0l-2.478 1.568c-0.12-0.286-0.28-0.572-0.481-0.856-0.191-0.284-0.504-0.658-0.938-1.122v0c-0.554-0.593-1.288-1.031-2.202-1.315-0.909-0.279-1.904-0.293-2.984-0.043-1.075 0.256-2.149 0.885-3.221 1.887v0zM73.732 234.474v0c-1.695-0.781-3.035-1.848-4.019-3.203-0.981-1.345-1.521-2.889-1.619-4.632-0.101-1.737 0.294-3.572 1.186-5.506v0c0.891-1.935 2.03-3.428 3.415-4.48 1.388-1.058 2.894-1.66 4.517-1.806 1.632-0.149 3.274 0.157 4.926 0.918v0c1.671 0.77 2.93 1.785 3.779 3.047 0.857 1.258 1.312 2.648 1.363 4.169 0.054 1.514-0.271 3.036-0.975 4.565v0c-0.187 0.405-0.369 0.768-0.546 1.088-0.18 0.326-0.354 0.607-0.523 0.843v0l-14.464-6.663 1.172-2.543 13.211 6.086-1.601-0.38c0.792-1.72 0.93-3.264 0.415-4.633-0.51-1.366-1.529-2.402-3.059-3.107v0c-1.173-0.54-2.308-0.736-3.404-0.585-1.094 0.144-2.106 0.62-3.036 1.427-0.934 0.798-1.73 1.913-2.389 3.344v0c-0.648 1.406-0.97 2.736-0.967 3.988 0 1.244 0.314 2.333 0.94 3.27 0.623 0.942 1.543 1.693 2.759 2.253v0c1.314 0.605 2.499 0.846 3.554 0.722 1.055-0.125 2.032-0.501 2.932-1.129v0l1.646 2.367c-0.831 0.608-1.737 1.046-2.717 1.316-0.975 0.273-2.008 0.352-3.102 0.236-1.09-0.107-2.221-0.431-3.394-0.972zM126.678 236.813l0.061-5.446c0.017-1.474-0.366-2.614-1.148-3.422-0.775-0.813-1.886-1.228-3.334-1.244v0c-1.366-0.015-2.525 0.269-3.478 0.853-0.953 0.578-1.66 1.523-2.122 2.837v0l-2.548-1.611c0.544-1.468 1.531-2.647 2.961-3.537 1.423-0.89 3.19-1.323 5.3-1.3v0c1.413 0.016 2.699 0.274 3.856 0.774 1.151 0.5 2.055 1.247 2.713 2.242 0.658 0.995 0.979 2.266 0.962 3.814v0l-0.108 9.544c-0.011 0.947 0.484 1.426 1.485 1.437v0c0.494 0.006 0.978-0.057 1.453-0.186v0l-0.18 2.483c-0.53 0.258-1.215 0.382-2.053 0.373v0c-0.764-0.009-1.445-0.162-2.044-0.46-0.605-0.291-1.074-0.736-1.405-1.334-0.338-0.592-0.502-1.335-0.493-2.227v0l0.005-0.396 0.79 0.121c-0.329 1.024-0.88 1.853-1.651 2.487-0.765 0.634-1.622 1.098-2.572 1.391-0.95 0.294-1.885 0.435-2.805 0.425v0c-1.156-0.013-2.233-0.221-3.228-0.625-0.996-0.41-1.784-1.018-2.364-1.822-0.586-0.811-0.872-1.809-0.859-2.992v0c0.017-1.474 0.524-2.686 1.522-3.635 0.998-0.942 2.378-1.576 4.14-1.901v0l7.827-1.453-0.029 2.606-6.364 1.227c-1.288 0.249-2.252 0.607-2.893 1.073-0.634 0.466-0.956 1.122-0.966 1.967v0c-0.009 0.811 0.305 1.478 0.942 1.999 0.637 0.521 1.547 0.788 2.729 0.802v0c0.764 0.009 1.495-0.081 2.194-0.27 0.699-0.195 1.328-0.492 1.887-0.891 0.559-0.399 0.998-0.905 1.316-1.517 0.325-0.619 0.492-1.347 0.501-2.186zM156.599 213.517l2.6-1.988 7.426 18.431c0.364 0.903 0.891 1.471 1.582 1.703 0.691 0.232 1.438 0.186 2.241-0.138v0c0.709-0.286 1.268-0.653 1.678-1.102 0.418-0.446 0.75-0.962 0.994-1.549v0l2.015 2.043c-0.351 0.739-0.854 1.408-1.509 2.007-0.646 0.603-1.471 1.107-2.476 1.511v0c-0.928 0.374-1.861 0.556-2.797 0.548-0.934-0.003-1.785-0.269-2.552-0.798-0.765-0.523-1.396-1.366-1.894-2.529v0zM154.715 219.372l13.238-5.333 1.016 2.521-13.238 5.333zM204.418 212.186l-2.295 2.164-19.749-20.944 2.295-2.164 8.253 8.753c-0.315-1.33-0.242-2.574 0.218-3.732 0.46-1.158 1.177-2.197 2.151-3.116v0c1.033-0.974 2.156-1.661 3.368-2.061 1.212-0.4 2.45-0.437 3.713-0.113 1.263 0.324 2.481 1.109 3.655 2.353v0l8.656 9.181-2.295 2.164-7.898-8.376c-1.498-1.589-2.879-2.374-4.143-2.353-1.268 0.015-2.399 0.492-3.392 1.428v0c-0.689 0.649-1.224 1.461-1.608 2.436-0.378 0.979-0.445 2.046-0.201 3.201 0.248 1.16 0.95 2.353 2.105 3.578v0zM236.689 164.932v0c-0.691 1.734-1.687 3.128-2.988 4.181-1.292 1.05-2.806 1.67-4.541 1.859-1.729 0.192-3.583-0.107-5.561-0.895v0c-1.979-0.789-3.53-1.847-4.653-3.176-1.129-1.331-1.809-2.803-2.04-4.416-0.234-1.622-0.015-3.278 0.659-4.968v0c0.681-1.709 1.629-3.019 2.845-3.933 1.212-0.922 2.576-1.448 4.091-1.579 1.509-0.134 3.046 0.111 4.61 0.734v0c0.415 0.165 0.786 0.328 1.116 0.489 0.335 0.163 0.625 0.322 0.869 0.477v0l-5.896 14.793-2.601-1.036 5.385-13.512-0.295 1.618c-1.759-0.701-3.308-0.758-4.649-0.171-1.338 0.581-2.318 1.653-2.942 3.217v0c-0.478 1.2-0.614 2.343-0.406 3.43 0.201 1.085 0.729 2.07 1.584 2.957 0.846 0.891 2.001 1.627 3.464 2.211v0c1.438 0.573 2.783 0.825 4.034 0.756 1.242-0.066 2.314-0.435 3.216-1.109 0.908-0.672 1.61-1.629 2.106-2.874v0c0.536-1.344 0.714-2.54 0.534-3.587-0.18-1.047-0.606-2.003-1.281-2.869v0l2.277-1.767c0.65 0.798 1.136 1.679 1.458 2.644 0.324 0.959 0.456 1.987 0.397 3.085-0.05 1.094-0.314 2.241-0.792 3.441z" fill="#ffffff" data-fill-palette-color="accent"></path><path d="M29.355 83.997L26.628 91.877 4.39 84.182 7.129 76.265C8.038 73.638 9.255 71.909 10.781 71.077 12.298 70.25 13.999 70.162 15.884 70.814V70.814C17.009 71.204 17.912 71.881 18.594 72.847 19.276 73.813 19.536 74.933 19.374 76.208V76.208L19.412 76.221C20.115 74.976 21.079 74.132 22.305 73.691 23.525 73.247 24.742 73.235 25.956 73.655V73.655C27.841 74.308 29.108 75.537 29.757 77.342 30.398 79.152 30.263 81.371 29.355 83.997ZM17.62 85.744L25.03 88.308 27.046 82.479C27.597 80.888 27.681 79.59 27.299 78.585 26.921 77.588 26.147 76.888 24.978 76.483V76.483C23.789 76.072 22.738 76.141 21.825 76.691 20.917 77.25 20.187 78.325 19.636 79.916V79.916ZM7.852 82.364L15.099 84.872 16.916 79.619C18.004 76.475 17.334 74.482 14.906 73.642V73.642C12.503 72.811 10.757 73.967 9.67 77.111V77.111ZM50.395 50.362L48.459 52.454 35.376 40.353 36.947 38.655 39.36 40.348C38.895 39.237 38.788 38.143 39.038 37.066 39.293 35.994 39.889 34.951 40.826 33.939V33.939C41.037 33.71 41.284 33.478 41.567 33.242 41.854 33.001 42.139 32.832 42.422 32.735V32.735L43.984 34.871C43.74 34.995 43.495 35.155 43.249 35.352 43.003 35.548 42.688 35.854 42.302 36.271V36.271C41.801 36.812 41.453 37.503 41.256 38.343 41.068 39.183 41.122 40.081 41.418 41.036 41.714 41.991 42.35 42.921 43.328 43.825V43.825ZM84.809 26.869V26.869C83.28 27.575 81.762 27.869 80.256 27.752 78.75 27.636 77.372 27.102 76.122 26.152 74.869 25.196 73.839 23.843 73.031 22.093V22.093C72.227 20.35 71.867 18.691 71.953 17.117 72.039 15.544 72.51 14.153 73.368 12.945 74.223 11.747 75.396 10.803 76.888 10.115V10.115C78.399 9.418 79.837 9.145 81.203 9.297 82.568 9.449 83.787 9.951 84.859 10.805 85.936 11.656 86.794 12.772 87.431 14.153V14.153C87.601 14.522 87.743 14.862 87.858 15.174 87.981 15.49 88.075 15.774 88.14 16.027V16.027L75.061 22.062 74.003 19.768 85.949 14.257 84.732 15.131C84.015 13.577 83.039 12.575 81.804 12.125 80.562 11.678 79.251 11.773 77.869 12.41V12.41C76.813 12.898 76.013 13.561 75.469 14.4 74.926 15.239 74.656 16.213 74.661 17.32 74.659 18.43 74.957 19.633 75.555 20.929V20.929C76.144 22.206 76.868 23.209 77.725 23.938 78.589 24.664 79.526 25.088 80.536 25.211 81.545 25.333 82.6 25.141 83.699 24.634V24.634C84.89 24.084 85.752 23.411 86.286 22.613 86.822 21.822 87.137 20.932 87.232 19.943V19.943L89.819 20.201C89.754 21.125 89.526 22.001 89.133 22.83 88.744 23.665 88.191 24.426 87.473 25.115 86.759 25.795 85.871 26.379 84.809 26.87ZM129.54 11.543L129.49 6.624C129.477 5.291 129.111 4.267 128.394 3.551 127.67 2.835 126.655 2.483 125.35 2.496V2.496C124.113 2.509 123.071 2.787 122.224 3.329 121.371 3.872 120.747 4.738 120.354 5.925V5.925L118.027 4.528C118.486 3.192 119.355 2.107 120.631 1.276 121.907 0.445 123.496 0.02 125.396 0.001V0.001C126.681-0.012 127.846 0.196 128.892 0.625 129.944 1.053 130.779 1.708 131.397 2.587 132.008 3.474 132.32 4.62 132.334 6.027V6.027L132.422 14.648C132.43 15.507 132.888 15.932 133.794 15.922V15.922C134.247 15.918 134.686 15.852 135.111 15.726V15.726L134.991 17.969C134.52 18.218 133.903 18.346 133.139 18.353V18.353C132.449 18.36 131.829 18.235 131.279 17.977 130.728 17.718 130.298 17.324 129.989 16.793 129.672 16.262 129.51 15.594 129.502 14.789V14.789L129.498 14.424 130.209 14.528C129.935 15.458 129.455 16.217 128.772 16.805 128.088 17.394 127.321 17.831 126.472 18.117 125.616 18.396 124.772 18.54 123.94 18.548V18.548C122.899 18.559 121.924 18.389 121.014 18.04 120.111 17.698 119.385 17.167 118.837 16.449 118.296 15.724 118.019 14.828 118.009 13.759V13.759C117.995 12.427 118.43 11.324 119.314 10.449 120.198 9.575 121.433 8.974 123.019 8.647V8.647L130.064 7.186 130.088 9.539 124.369 10.774C123.201 11.022 122.336 11.362 121.772 11.794 121.209 12.232 120.931 12.83 120.938 13.588V13.588C120.946 14.325 121.243 14.924 121.829 15.384 122.415 15.838 123.242 16.06 124.311 16.049V16.049C125 16.042 125.659 15.947 126.286 15.765 126.913 15.576 127.475 15.297 127.971 14.926 128.468 14.549 128.856 14.082 129.134 13.525 129.412 12.961 129.548 12.3 129.54 11.543ZM171.047 4.527L173.99 4.887 167.189 21.514C166.856 22.327 166.838 23.025 167.133 23.606 167.433 24.196 167.945 24.639 168.671 24.936V24.936C169.31 25.197 169.907 25.31 170.462 25.274 171.015 25.245 171.551 25.121 172.071 24.902V24.902L172.098 27.489C171.402 27.745 170.653 27.862 169.85 27.841 169.055 27.822 168.206 27.628 167.305 27.26V27.26C166.466 26.916 165.744 26.449 165.138 25.858 164.535 25.261 164.149 24.551 163.981 23.73 163.822 22.905 163.946 21.959 164.353 20.891V20.891ZM166.131 7.141L178.073 12.026 177.144 14.298 165.202 9.413ZM195.819 45.878L193.768 43.898 211.841 25.168 213.892 27.148 206.341 34.972C207.526 34.631 208.653 34.647 209.721 35.02 210.785 35.388 211.752 35.992 212.623 36.833V36.833C213.547 37.725 214.215 38.708 214.627 39.781 215.043 40.859 215.132 41.975 214.894 43.127 214.652 44.283 213.996 45.417 212.925 46.526V46.526L205.001 54.738 202.95 52.759 210.177 45.27C211.548 43.849 212.197 42.567 212.124 41.426 212.056 40.289 211.576 39.291 210.686 38.431V38.431C210.068 37.835 209.314 37.385 208.424 37.08 207.524 36.776 206.557 36.759 205.525 37.031 204.482 37.303 203.433 37.987 202.376 39.082V39.082ZM222.17 86.676V86.676C221.565 85.104 221.369 83.571 221.583 82.075 221.797 80.58 222.419 79.239 223.447 78.053 224.483 76.865 225.899 75.924 227.698 75.232V75.232C229.49 74.542 231.168 74.29 232.733 74.478 234.298 74.665 235.655 75.225 236.805 76.16 237.946 77.09 238.811 78.322 239.402 79.855V79.855C240 81.407 240.179 82.86 239.939 84.213 239.699 85.567 239.119 86.75 238.198 87.764 237.279 88.785 236.11 89.568 234.69 90.115V90.115C234.311 90.261 233.963 90.381 233.644 90.474 233.321 90.577 233.031 90.652 232.774 90.701V90.701L227.598 77.259 229.955 76.352 234.683 88.629 233.889 87.358C235.486 86.743 236.549 85.834 237.078 84.63 237.605 83.42 237.595 82.105 237.048 80.685V80.685C236.63 79.6 236.02 78.759 235.217 78.162 234.415 77.565 233.461 77.233 232.356 77.166 231.248 77.093 230.028 77.313 228.697 77.825V77.825C227.384 78.331 226.336 78.988 225.554 79.797 224.773 80.612 224.289 81.519 224.102 82.519 223.914 83.518 224.038 84.583 224.473 85.713V85.713C224.944 86.937 225.561 87.841 226.322 88.425 227.076 89.011 227.944 89.383 228.926 89.541V89.541L228.501 92.107C227.583 91.982 226.723 91.697 225.922 91.252 225.114 90.81 224.389 90.209 223.749 89.448 223.117 88.691 222.59 87.767 222.17 86.676Z" fill="#ffffff" data-fill-palette-color="accent"></path><path d="M0.07 121.766c0-5.491 4.451-9.943 9.942-9.942 5.491 0 9.943 4.451 9.943 9.942 0 5.491-4.451 9.943-9.943 9.943-5.491 0-9.943-4.451-9.942-9.943zM224.477 121.766c0-5.491 4.451-9.943 9.942-9.942 5.491 0 9.943 4.451 9.943 9.942 0 5.491-4.451 9.943-9.943 9.943-5.491 0-9.943-4.451-9.942-9.943z" fill="#ffffff" data-fill-palette-color="accent"></path></svg></g></svg></g><g></g></svg></g><defs></defs></svg><rect width="262.9177133338649" height="247.2" fill="none" stroke="none" visibility="hidden"></rect></g></svg></g></svg>